HIERARCHY
ROOT Hips
{
	OFFSET 0.000000 0.000000 0.000000 
	CHANNELS 6 Xposition Yposition Zposition Yrotation Zrotation Xrotation 
	JOINT Lumbar
	{
		OFFSET 0.000000 0.000000 0.000000 
		CHANNELS 3 Zrotation Xrotation Yrotation
		JOINT Neck
		{
			OFFSET 0.000000 0.445665 0.000000 
			CHANNELS 3 Zrotation Xrotation Yrotation
			End Site
			{
				OFFSET 0.000000 0.227535 0.000000 
			}
		}
		JOINT RightShoulder
		{
			OFFSET 0.019635 0.377685 0.194865 
			CHANNELS 3 Zrotation Xrotation Yrotation
			JOINT RightElbow
			{
				OFFSET 0.000000 -0.243375 0.000000 
				CHANNELS 2 Zrotation Yrotation
				JOINT RightWrist
				{
					OFFSET 0.000000 -0.264825 0.000000 
					CHANNELS 2 Zrotation Xrotation
					End Site
					{
						OFFSET 0.006600 -0.176220 0.000990 
					}
				}
			}
		}
		JOINT LeftShoulder
		{
			OFFSET 0.019635 0.377685 -0.194865 
			CHANNELS 3 Zrotation Xrotation Yrotation
			JOINT LeftElbow
			{
				OFFSET 0.000000 -0.243375 0.000000 
				CHANNELS 2 Zrotation Yrotation
				JOINT LeftWrist
				{
					OFFSET 0.000000 -0.264825 0.000000 
					CHANNELS 2 Zrotation Xrotation
					End Site
					{
						OFFSET 0.006600 -0.176220 -0.000990 
					}
				}
			}
		}
	}
	JOINT RightHip
	{
		OFFSET 0.052140 -0.069960 0.075570 
		CHANNELS 3 Zrotation Xrotation Yrotation
		JOINT RightKnee
		{
			OFFSET 0.000000 -0.402270 0.000000 
			CHANNELS 1 Zrotation
			JOINT RightAnkle
			{
				OFFSET 0.000000 -0.404085 0.000000 
				CHANNELS 3 Zrotation Xrotation Yrotation
				End Site
				{
					OFFSET 0.204105 -0.089430 0.008415 
				}
			}
		}
	}
	JOINT LeftHip
	{
		OFFSET 0.052140 -0.069960 -0.075570 
		CHANNELS 3 Zrotation Xrotation Yrotation
		JOINT LeftKnee
		{
			OFFSET 0.000000 -0.402270 0.000000 
			CHANNELS 1 Zrotation
			JOINT LeftAnkle
			{
				OFFSET 0.000000 -0.404085 0.000000 
				CHANNELS 3 Zrotation Xrotation Yrotation
				End Site
				{
					OFFSET 0.204105 -0.089430 -0.008415 
				}
			}
		}
	}
}
MOTION
Frames: 22
Frame Time: 0.02
1.67752 0.92071 -0.22356 1600.00082 0 6.57425 9.46059 0.56427 8.73966 -22.94299 -8.66438 -1.13572 13.49784 -4.79123 -23.79859 14.31745 78.66513 -2.49599 -2.41512 17.62808 15.0558 59.03471 121.81836 -46.63937 -67.86315 0.95816 -15.30046 0.61722 5.49943 -32.8348 8.10935 -6.73289 -8.1631 11.5298 -13.17315 8.91189 -9.29745 0.37781 0.63284 -5.47048
1.65474 0.92016 -0.22753 1599.25451 0 7.73007 9.57908 0.04952 8.99745 -23.194 -8.95492 -1.16645 13.17364 -4.52149 -23.36307 13.70662 78.71013 -2.22012 -1.81604 17.78772 14.77631 59.34336 121.7723 -46.5873 -67.75058 0.94986 -13.15022 -1.95412 4.55059 -37.81935 4.90348 -5.66082 -4.77724 10.858 -13.4788 14.76108 -11.22095 0.6242 0.37303 -7.90833
1.63316 0.91961 -0.23085 1598.26355 0 8.82475 9.45484 -0.3877 9.26383 -23.13464 -9.17805 -1.06694 12.62734 -4.4008 -22.88611 13.06831 78.75446 -1.94785 -1.14062 17.81303 14.4343 59.61651 121.79809 -46.56326 -67.61663 0.94367 -10.19466 -4.78684 3.52503 -43.74686 1.01366 -4.45021 -0.63215 10.40659 -13.50461 21.49683 -13.74246 1.30612 0.35349 -10.17584
1.61119 0.91905 -0.23453 1597.38212 0 9.92416 9.42841 -0.85768 9.50975 -23.20763 -9.40564 -1.0191 12.18626 -4.23288 -22.44389 12.45189 78.79655 -1.68689 -0.50913 17.89721 14.1161 59.90047 121.78776 -46.51017 -67.49139 0.93457 -7.57842 -7.42181 2.60793 -49.19946 -2.42551 -3.34227 2.98379 9.85184 -13.66097 27.64122 -15.95805 1.79392 0.22054 -12.46616
1.58849 0.91855 -0.23794 1596.50497 0 11.13014 9.45961 -1.34361 9.82605 -23.32503 -9.74674 -1.00612 11.72538 -3.97237 -21.93736 11.79005 78.84716 -1.37079 0.16448 17.99848 13.81646 60.20388 121.78898 -46.51993 -67.37147 0.93305 -5.06428 -10.40522 1.38142 -54.87831 -6.46411 -2.05609 7.38296 9.31499 -13.80858 34.61697 -18.36555 2.25856 0.0963 -15.0138
1.56763 0.91793 -0.24177 1595.56677 0 12.09261 9.313 -1.77479 9.99259 -23.27627 -9.82955 -0.88841 11.25493 -3.94629 -21.55247 11.22051 78.88119 -1.1696 0.76737 18.02908 13.45876 60.45994 121.78458 -46.40955 -67.23322 0.91667 -2.15613 -12.71382 0.77374 -60.27961 -9.4146 -1.11245 10.3337 8.78733 -13.90563 40.05598 -20.48761 2.87585 0.0147 -16.97536
1.55154 0.91684 -0.24674 1594.45855 0 12.4407 8.71294 -2.0865 9.80516 -22.80804 -9.27348 -0.51192 10.79684 -4.48447 -21.52929 10.8876 78.86016 -1.29789 1.15557 17.8991 13.01605 60.58807 121.74475 -45.93841 -67.07184 0.85663 1.71424 -13.16161 1.9814 -64.90757 -9.17384 -1.14657 9.04043 8.2841 -13.93381 41.05299 -21.79466 3.83012 -0.00949 -17.34629
1.53728 0.91565 -0.25218 1593.30819 0 12.53745 7.94527 -2.34323 9.45589 -22.18898 -8.44951 -0.03359 10.33991 -5.26287 -21.62596 10.65365 78.82203 -1.53999 1.46989 17.70125 12.50666 60.67082 121.6976 -45.35012 -66.88904 0.78203 5.93807 -12.90849 3.80042 -69.17722 -7.81668 -1.53153 6.27489 7.77385 -13.91934 40.46192 -22.76883 4.92031 0.00323 -17.12824
1.5222 0.91459 -0.25749 1592.21705 0 12.71978 7.26786 -2.61556 9.14112 -21.66084 -7.71036 0.39664 9.89248 -5.96146 -21.65838 10.39125 78.80129 -1.7211 1.8177 17.53223 11.98952 60.77913 121.65577 -44.83051 -66.70125 0.7155 9.95469 -12.93024 5.28119 -73.46716 -6.98145 -1.75933 4.21723 7.23063 -13.92247 40.58448 -23.80845 5.93495 0.00037 -17.18973
1.50709 0.91322 -0.26242 1590.94888 0 13.01936 6.5232 -2.92303 8.9917 -21.02584 -7.12399 0.83592 9.39423 -6.53919 -21.73428 10.0581 78.74993 -1.93951 2.16754 17.36708 11.63124 60.86707 121.6081 -44.24649 -66.57366 0.64279 14.20213 -13.14189 7.00857 -78.40584 -6.10785 -1.97463 2.01297 6.84291 -13.92452 40.78383 -25.2213 7.02225 -0.00237 -17.21086
1.49246 0.91244 -0.26827 1590.04181 0 13.01789 5.88123 -3.1476 8.45899 -20.5838 -6.15757 1.28276 9.00594 -7.42636 -21.74409 9.89611 78.74571 -2.1096 2.49595 17.17957 10.92648 60.98492 121.56976 -43.76862 -66.31736 0.57959 18.03469 -12.79275 8.37559 -81.87849 -5.04121 -2.29841 -0.23359 6.13282 -13.92099 40.42051 -25.78317 7.98556 0.00412 -17.15922
1.47869 0.91343 -0.27653 1590.15089 0 12.22809 5.57169 -3.13595 6.91151 -20.69425 -4.20119 1.69118 8.91379 -9.08501 -21.58288 10.18311 78.98231 -2.09829 2.77064 16.94663 9.2893 61.2133 121.55977 -43.61143 -65.70163 0.54542 20.69259 -11.02515 8.53955 -81.53123 -3.70006 -2.86022 -2.34413 4.4807 -13.92456 39.00692 -23.95686 8.56459 -0.00485 -17.21609
1.46532 0.91501 -0.2857 1590.62463 0 11.14753 5.37151 -3.04653 4.98398 -21.00901 -1.87433 2.10917 8.93453 -11.04926 -21.34494 10.63849 79.24611 -2.03833 3.02797 16.69434 7.30646 61.46878 121.55866 -43.56528 -64.96136 0.52149 22.90396 -8.72416 8.33235 -79.68898 -2.20192 -3.51503 -4.43065 2.51298 -13.92293 37.0577 -21.30494 9.0132 -9e-05 -17.19183
1.45178 0.91626 -0.29445 1590.92666 0 10.2128 5.11667 -3.00735 3.22664 -21.24286 0.28024 2.54501 8.90969 -12.89035 -21.11385 11.01718 79.42886 -2.01359 3.30153 16.45162 5.47452 61.70302 121.55291 -43.46875 -64.2812 0.4934 25.28057 -6.69267 8.3322 -78.43528 -0.78235 -4.11237 -6.4611 0.72417 -13.91746 35.27141 -19.10634 9.52553 0.01692 -17.09466
1.43829 0.91776 -0.30323 1591.25149 0 9.21233 4.8747 -2.90538 1.47067 -21.42013 2.46607 2.89193 8.86141 -14.67883 -20.99971 11.40206 79.90495 -1.93676 3.53865 16.20274 3.65851 61.97986 121.55052 -43.3674 -63.57552 0.46269 27.83742 -4.5208 8.1861 -77.55699 0.70426 -4.78706 -8.82356 -1.21327 -13.93742 33.76248 -16.56645 10.02573 -0.04658 -17.43258
1.42474 0.91888 -0.31216 1591.61709 0 8.28195 4.63671 -2.91384 -0.37173 -21.76667 4.66463 3.42353 8.88775 -16.6397 -20.6291 11.81018 79.77182 -1.95631 3.84687 15.96355 1.73793 62.16678 121.54206 -43.30448 -62.90615 0.44009 29.89776 -2.52587 8.25443 -75.54167 2.07652 -5.31689 -10.47182 -2.91765 -13.90264 31.5788 -14.54595 10.51636 0.06523 -16.86241
1.41113 0.91883 -0.32125 1591.99777 0 7.62599 4.36284 -3.26857 -2.39767 -22.5248 6.86241 4.47436 9.10215 -19.05646 -19.50915 12.26225 77.9946 -2.24504 4.36968 15.75075 -0.47043 62.16975 121.5257 -43.31613 -62.25699 0.43704 30.78242 -1.13347 8.94293 -70.80101 3.06521 -5.43322 -10.12825 -3.8871 -13.72703 27.58837 -14.16084 11.02825 0.61302 -13.72514
1.39741 0.91838 -0.33045 1592.40886 0 7.0497 4.09443 -3.73295 -4.48912 -23.44836 9.04811 5.70772 9.3863 -21.62409 -18.14432 12.72711 75.59741 -2.63326 4.96217 15.54903 -2.75596 62.0686 121.50114 -43.36349 -61.6665 0.44189 31.16573 0.05675 9.86585 -64.96755 3.93065 -5.3969 -9.06367 -4.61357 -13.4944 22.96057 -14.32943 11.53107 1.3429 -9.6958
1.38362 0.91808 -0.33962 1592.81148 0 6.43226 3.8368 -4.13318 -6.52553 -24.3005 11.20274 6.84976 9.63179 -24.08642 -16.93027 13.1723 73.45173 -2.98149 5.51422 15.34676 -4.95119 61.96833 121.47282 -43.39865 -61.12543 0.44343 31.71912 1.32408 10.72311 -59.59502 4.86963 -5.42281 -8.33926 -5.46078 -13.28306 18.67966 -14.24569 12.02733 2.02112 -6.1284
1.37038 0.91791 -0.34875 1593.2035 0 5.8268 3.52439 -4.59233 -8.68393 -25.14283 13.52695 8.02879 9.90926 -26.71732 -15.54686 13.68344 71.42493 -3.30712 6.10361 15.12753 -7.39238 62.06356 121.47539 -43.4228 -60.27075 0.44427 32.49748 2.66928 11.40687 -54.29099 5.75184 -5.48298 -7.56436 -6.27615 -13.09377 14.13175 -14.13278 12.56534 2.57688 -2.31418
1.35593 0.91738 -0.35798 1593.62094 0 5.21738 3.32912 -4.95427 -10.5964 -26.04347 15.48755 9.17237 10.13688 -29.0256 -14.45908 14.05614 69.01512 -3.7027 6.63084 14.94315 -9.33426 61.72835 121.41285 -43.47416 -60.06982 0.44813 32.69844 3.80167 12.49788 -48.64171 6.70698 -5.43349 -6.7208 -7.09514 -12.84164 10.00289 -14.22681 13.01454 3.42034 1.19046
1.33839 0.91596 -0.36731 1594.09405 0 4.59429 3.42852 -5.03491 -11.83273 -27.05291 16.46724 10.18583 10.19541 -30.43146 -14.24853 14.05964 65.59547 -4.27908 6.97923 14.88506 -9.88402 60.21715 121.16106 -43.61647 -61.79325 0.46005 31.38861 4.35213 14.77576 -41.98988 8.01152 -5.12419 -5.88304 -7.98691 -12.45793 7.13355 -14.73212 13.23066 5.10178 3.6702
